<svg xmlns="http://www.w3.org/2000/svg" viewBox="0 0 84 92" role="img" aria-labelledby="c1i-title">
  <title id="c1i-title">Carta Invitación México — Ícono Concepto 1</title>
  <path d="M8,4 L42,4 L58,20 L58,84 Q58,88 54,88 L12,88 Q8,88 8,84 Z" fill="#1B3566"/>
  <path d="M42,4 L58,20 L42,20 Z" fill="#2D5499"/>
  <rect x="16" y="30" width="24" height="2.5" rx="1.25" fill="rgba(255,255,255,0.5)"/>
  <rect x="16" y="38" width="32" height="2.5" rx="1.25" fill="rgba(255,255,255,0.5)"/>
  <rect x="16" y="46" width="20" height="2.5" rx="1.25" fill="rgba(255,255,255,0.5)"/>
  <rect x="16" y="54" width="28" height="2.5" rx="1.25" fill="rgba(255,255,255,0.5)"/>
  <rect x="16" y="62" width="16" height="2.5" rx="1.25" fill="rgba(255,255,255,0.5)"/>
  <circle cx="60" cy="68" r="22" fill="white"/>
  <circle cx="60" cy="68" r="22" stroke="#C9A84C" fill="none" stroke-width="2.5"/>
  <circle cx="60" cy="68" r="15" stroke="#C9A84C" fill="none" stroke-width="1"/>
  <path d="M51,68 L57,75 L70,57" stroke="#C9A84C" fill="none" stroke-width="2.5" stroke-linecap="round" stroke-linejoin="round"/>
</svg>
